<?xml version="1.0" standalone="no"?>
<!DOCTYPE svg PUBLIC "-//W3C//DTD SVG 20010904//EN"
 "http://www.w3.org/TR/2001/REC-SVG-20010904/DTD/svg10.dtd">
<svg version="1.0" xmlns="http://www.w3.org/2000/svg"
 width="1342.000000pt" height="773.000000pt" viewBox="0 0 1342.000000 773.000000"
 preserveAspectRatio="xMidYMid meet">

<g transform="translate(0.000000,773.000000) scale(0.100000,-0.100000)"
fill="#000000" stroke="none">
<path d="M10756 5875 c-7 -20 14 -65 31 -65 23 0 14 -33 -27 -95 -22 -33 -40
-63 -40 -68 0 -4 -10 -19 -22 -32 l-23 -24 -88 85 -87 84 -11 -26 c-8 -23 -6
-31 17 -55 15 -16 26 -31 23 -33 -9 -9 -174 52 -177 66 -1 8 6 25 18 38 11 12
20 28 19 34 0 6 -8 0 -17 -14 -39 -56 -49 -62 -82 -45 -17 9 -35 13 -40 10 -5
-3 -25 1 -44 9 -19 8 -56 18 -81 21 -60 10 -71 -13 -26 -59 31 -32 40 -56 21
-56 -5 0 -10 6 -10 14 0 14 -24 29 -33 19 -10 -9 5 -33 17 -26 6 4 4 -1 -3
-11 -13 -16 -26 -17 -105 -12 -247 17 -248 17 -234 33 10 13 8 19 -11 34 -13
10 -27 16 -32 13 -14 -8 -11 -30 6 -44 27 -22 16 -30 -45 -30 -136 0 -380 -48
-548 -107 -113 -40 -317 -144 -422 -215 -382 -257 -652 -636 -770 -1082 -26
-97 -69 -329 -73 -394 -2 -24 -27 -37 -68 -33 -31 3 -52 -20 -47 -51 5 -34 42
-36 64 -4 38 58 64 20 64 -92 0 -102 33 -320 67 -442 14 -52 26 -106 27 -120
1 -14 7 -31 14 -38 6 -7 12 -18 12 -25 0 -6 -7 -2 -15 9 -14 18 -14 18 -13 -8
2 -27 9 -32 36 -29 14 2 16 -11 3 -25 -4 -5 -11 -25 -14 -44 -3 -19 -3 -29 0
-22 8 21 23 13 23 -13 0 -14 4 -25 8 -25 5 0 9 -14 10 -31 0 -18 9 -38 21 -48
12 -10 21 -30 21 -45 0 -15 4 -24 10 -21 5 3 12 -6 16 -20 4 -16 13 -25 25
-25 10 0 19 -6 19 -12 0 -9 3 -8 10 2 6 9 6 18 0 24 -6 6 -10 16 -10 24 0 9 7
5 19 -9 11 -13 15 -25 10 -27 -5 -2 -9 -8 -9 -13 0 -4 6 -6 13 -4 6 3 32 -20
57 -51 47 -60 263 -282 316 -326 33 -27 121 -90 189 -135 71 -47 257 -139 359
-177 214 -81 420 -118 649 -118 228 1 404 30 617 105 133 46 305 129 313 151
12 30 -14 26 -90 -13 -205 -105 -399 -159 -666 -187 -147 -15 -171 -15 -329 0
-94 9 -210 25 -257 36 -328 73 -637 243 -872 480 -103 104 -179 195 -179 213
0 7 15 -4 33 -24 55 -62 113 -123 143 -150 32 -29 82 -50 69 -29 -6 9 -3 9 13
1 38 -21 33 -11 -41 76 -184 219 -270 356 -362 577 -71 171 -116 362 -131 550
-10 137 -14 146 -53 122 -23 -15 -8 -282 24 -435 26 -123 28 -157 7 -104 -38
96 -82 346 -82 467 0 83 6 106 26 106 7 0 21 12 31 27 23 34 30 193 9 193 -19
0 -23 -16 -32 -101 -3 -41 -10 -81 -15 -89 -17 -32 -22 23 -9 99 56 340 51
318 125 519 27 75 129 267 168 317 4 6 34 47 67 93 277 383 739 652 1234 718
139 18 401 13 478 -11 26 -7 48 -11 51 -8 3 2 16 -2 29 -10 12 -8 48 -20 78
-27 129 -28 394 -140 440 -185 12 -13 10 -14 -20 -5 -18 5 -35 8 -37 6 -3 -2
29 -26 69 -52 40 -27 85 -59 99 -72 14 -12 34 -29 45 -37 17 -13 17 -14 2 -15
-10 0 -18 -5 -18 -12 0 -9 -3 -9 -12 0 -7 7 -27 12 -45 12 -32 0 -45 14 -20
23 6 2 -4 9 -23 14 -44 13 -65 0 -47 -28 8 -12 18 -17 31 -13 13 4 16 3 11 -6
-5 -8 -2 -18 7 -24 22 -17 29 -44 12 -50 -15 -6 -31 -2 -82 21 -19 8 -35 13
-38 11 -5 -5 120 -108 131 -108 5 0 32 -25 61 -55 30 -30 58 -55 64 -55 5 0
10 -9 10 -20 0 -11 3 -19 8 -18 11 2 42 -13 42 -21 0 -4 30 -38 68 -77 76 -80
174 -210 215 -286 15 -28 32 -58 39 -65 6 -8 22 -35 35 -61 18 -38 22 -41 17
-17 -3 17 -14 48 -23 70 -10 22 -29 65 -41 95 -13 30 -33 76 -46 101 -29 56
-29 55 -5 62 14 3 21 -2 25 -20 4 -13 11 -21 16 -18 6 3 11 0 11 -7 1 -7 2
-17 4 -23 1 -5 3 -16 3 -22 3 -20 22 -15 23 5 0 13 3 12 11 -5 6 -13 15 -23
19 -23 11 0 0 61 -14 77 -5 7 -7 26 -5 42 3 20 -1 32 -14 40 -10 6 -18 16 -18
22 0 6 -9 24 -21 41 -12 16 -18 32 -15 36 4 3 10 2 14 -4 4 -5 37 -53 73 -104
178 -257 271 -551 305 -965 l8 -90 11 85 c10 72 13 80 20 56 18 -65 -9 -326
-51 -491 -47 -182 -144 -397 -260 -578 -73 -114 -76 -118 -70 -124 8 -8 -54
-85 -126 -156 -54 -54 -64 -77 -34 -77 6 0 58 46 115 102 97 98 103 102 117
84 11 -16 14 -17 14 -4 0 18 30 19 45 2 6 -7 21 -14 35 -17 29 -7 54 19 144
152 222 326 342 803 307 1218 -19 232 -31 327 -43 356 -16 41 0 64 147 210 72
71 120 122 107 114 -36 -23 -262 -245 -262 -258 0 -26 -26 12 -39 58 -20 68
-85 232 -115 292 -14 28 -26 55 -26 60 0 7 61 12 162 13 l161 3 33 150 c19 83
32 155 30 160 -3 12 -14 12 -251 15 l-180 2 -22 -27 c-23 -26 -28 -52 -17 -92
5 -19 13 -23 43 -23 30 0 40 5 54 29 9 16 17 41 17 55 0 26 1 26 83 27 45 0
96 2 114 5 18 2 34 0 37 -4 2 -4 -9 -59 -25 -122 -16 -63 -29 -123 -29 -132 0
-21 -23 -28 -75 -23 -22 2 -67 4 -101 4 l-60 1 -50 82 c-57 96 -131 197 -156
216 -30 22 -20 29 37 24 53 -4 56 -3 94 35 54 54 62 98 27 155 -49 82 -97 119
-167 132 l-34 6 30 -12 c17 -6 32 -14 35 -17 3 -4 17 -14 33 -24 15 -10 41
-37 58 -60 27 -37 30 -48 25 -86 -6 -45 -27 -70 -58 -71 -11 0 -18 7 -18 18 0
27 -20 42 -55 42 -42 0 -71 -30 -56 -59 22 -40 9 -31 -76 57 -49 49 -123 115
-165 147 l-77 57 20 31 c20 34 26 111 9 122 -5 3 -10 24 -10 46 0 56 40 93 88
84 23 -4 32 -3 27 4 -3 6 -26 11 -50 11 -36 0 -48 -5 -69 -31 -23 -27 -26 -40
-26 -103 0 -69 -1 -73 -30 -94 l-30 -22 -37 23 c-21 13 -60 34 -87 48 -27 13
-50 29 -53 35 -2 6 14 41 37 77 22 37 40 71 40 77 0 5 4 10 8 10 13 0 42 67
42 96 0 14 -5 34 -10 45 -13 23 -55 25 -64 4z m-236 -165 c0 -5 -2 -10 -4 -10
-3 0 -8 5 -11 10 -3 6 -1 10 4 10 6 0 11 -4 11 -10z m-333 -96 c-3 -3 -12 -4
-19 -1 -8 3 -5 6 6 6 11 1 17 -2 13 -5z m749 -169 c-7 -18 -26 -20 -26 -2 0
18 24 41 28 27 2 -6 1 -17 -2 -25z m-120 -330 c31 -29 20 -34 -13 -6 -21 18
-29 31 -19 31 3 0 17 -11 32 -25z m69 -63 c-3 -3 -11 0 -18 7 -9 10 -8 11 6 5
10 -3 15 -9 12 -12z m982 -29 c-3 -10 -18 -71 -33 -135 -18 -77 -32 -118 -41
-118 -17 0 -16 10 6 100 10 41 22 93 26 115 8 49 12 55 31 55 10 0 14 -6 11
-17z m-125 -1230 c50 -45 -13 -120 -71 -84 -19 12 -5 30 18 24 13 -3 20 2 25
20 3 14 3 33 0 41 -8 21 5 20 28 -1z"/>
<path d="M11292 5878 c-7 -7 -12 -25 -12 -40 0 -24 4 -28 28 -28 31 0 71 33
53 44 -6 4 -8 13 -4 21 7 19 -47 21 -65 3z m38 -28 c0 -5 -5 -10 -11 -10 -5 0
-7 5 -4 10 3 6 8 10 11 10 2 0 4 -4 4 -10z"/>
<path d="M10565 5859 c-4 -6 -5 -12 -2 -15 2 -3 7 2 10 11 7 17 1 20 -8 4z"/>
<path d="M11406 5851 c22 -10 58 -29 80 -43 76 -48 153 -88 169 -88 9 0 19 9
22 20 3 11 9 20 14 20 5 0 9 5 9 12 0 6 -7 4 -18 -5 -24 -22 -33 -21 -25 1 6
16 5 16 -14 0 -24 -22 -39 -23 -47 -3 -3 8 -11 12 -18 10 -8 -3 -29 6 -48 20
-19 14 -38 25 -42 25 -5 0 -26 11 -48 25 -22 14 -48 25 -57 25 -10 0 0 -9 23
-19z"/>
<path d="M10402 5820 c-7 -11 -8 -20 -3 -20 9 0 24 30 18 36 -1 2 -8 -6 -15
-16z"/>
<path d="M10522 5795 c-6 -14 -10 -25 -8 -25 2 0 11 11 20 25 9 14 13 25 8 25
-5 0 -14 -11 -20 -25z"/>
<path d="M11120 5770 c-12 -7 -12 -12 -2 -22 9 -9 15 -9 24 0 16 16 -2 34 -22
22z"/>
<path d="M9990 5750 c36 -12 72 -12 65 0 -3 6 -25 10 -48 9 -36 -1 -38 -2 -17
-9z"/>
<path d="M11107 5684 c-9 -9 4 -35 14 -28 5 3 9 12 9 20 0 14 -12 19 -23 8z"/>
<path d="M11008 5598 c-4 -26 0 -38 23 -60 30 -31 46 -34 82 -17 28 13 57 62
32 52 -8 -3 -15 -9 -15 -13 0 -4 -12 -11 -26 -14 -34 -9 -78 18 -71 44 3 11
-1 24 -8 30 -10 8 -14 3 -17 -22z"/>
<path d="M11690 5566 c0 -22 19 -29 36 -15 12 10 12 14 2 20 -20 13 -38 10
-38 -5z"/>
<path d="M9353 5513 c9 -2 23 -2 30 0 6 3 -1 5 -18 5 -16 0 -22 -2 -12 -5z"/>
<path d="M9223 5486 c-59 -20 -81 -36 -50 -36 21 0 141 40 152 51 15 15 -36 8
-102 -15z"/>
<path d="M11767 5471 c-27 -66 0 -125 68 -151 38 -15 185 -14 199 1 8 8 5 9
-11 4 -14 -4 -23 -2 -23 4 0 7 -30 11 -79 11 -72 0 -83 3 -111 27 -31 25 -32
29 -28 85 2 32 3 58 2 58 -1 0 -9 -18 -17 -39z"/>
<path d="M9110 5440 c0 -5 6 -10 14 -10 8 0 18 5 21 10 3 6 -3 10 -14 10 -12
0 -21 -4 -21 -10z"/>
<path d="M9065 5420 c3 -5 13 -10 21 -10 8 0 12 5 9 10 -3 6 -13 10 -21 10 -8
0 -12 -4 -9 -10z"/>
<path d="M11956 5419 c-10 -6 -39 -9 -64 -6 -43 5 -45 4 -22 -9 29 -16 80 -18
80 -4 0 6 7 10 15 10 8 0 15 5 15 10 0 12 0 12 -24 -1z"/>
<path d="M9018 5403 c6 -2 18 -2 25 0 6 3 1 5 -13 5 -14 0 -19 -2 -12 -5z"/>
<path d="M11452 5363 c2 -10 12 -18 23 -18 11 0 21 8 23 18 3 13 -3 17 -23 17
-20 0 -26 -4 -23 -17z"/>
<path d="M12070 5312 c0 -12 19 -26 26 -19 2 2 -2 10 -11 17 -9 8 -15 8 -15 2z"/>
<path d="M11513 5293 c-7 -3 -13 -14 -13 -25 0 -14 6 -19 22 -16 13 2 24 10
26 19 3 18 -15 29 -35 22z"/>
<path d="M9350 5274 c-93 -20 -225 -62 -298 -94 -121 -55 -313 -192 -422 -301
-76 -76 -180 -222 -167 -235 2 -3 33 26 68 63 203 217 348 332 544 431 108 55
242 112 263 112 6 0 12 5 12 10 0 6 16 10 35 10 19 0 35 5 35 10 0 6 -1 10 -2
9 -2 0 -32 -7 -68 -15z"/>
<path d="M12046 4631 c-14 -16 -15 -19 -2 -24 9 -4 16 3 19 19 5 29 5 29 -17
5z"/>
<path d="M11765 4284 c9 -9 18 -14 21 -11 9 9 -6 27 -22 27 -13 0 -13 -2 1
-16z"/>
<path d="M9585 4276 c-54 -17 -103 -43 -134 -72 -31 -29 -16 -31 36 -4 21 11
65 31 98 44 88 35 88 60 0 32z"/>
<path d="M11791 4250 c1 -8 5 -26 9 -40 l8 -25 1 25 c0 14 -4 32 -9 40 -9 13
-10 13 -9 0z"/>
<path d="M9985 4217 c28 -18 70 -47 94 -65 24 -18 47 -30 49 -27 10 10 -63 77
-110 101 -70 35 -91 30 -33 -9z"/>
<path d="M8007 4133 c-4 -3 -7 -28 -7 -55 0 -36 4 -48 15 -48 12 0 14 6 8 28
-4 15 -7 39 -7 55 1 29 1 30 -9 20z"/>
<path d="M9221 3648 c0 -44 21 -106 50 -149 26 -37 33 -16 11 33 -10 24 -25
67 -31 96 -16 66 -31 76 -30 20z"/>
<path d="M10231 3557 c-15 -39 -14 -45 5 -19 8 12 13 28 11 35 -3 6 -10 -1
-16 -16z"/>
<path d="M10206 3493 c-6 -14 -5 -15 5 -6 7 7 10 15 7 18 -3 3 -9 -2 -12 -12z"/>
<path d="M8228 3370 c-15 -101 107 -373 255 -570 70 -94 215 -236 294 -289 42
-29 78 -50 80 -47 3 2 -60 69 -139 148 -85 85 -170 182 -210 238 -69 97 -160
273 -218 415 -17 44 -38 93 -44 110 l-13 30 -5 -35z"/>
<path d="M9595 3240 c41 -20 115 -27 115 -11 0 11 -28 18 -100 25 l-55 6 40
-20z"/>
<path d="M7701 3217 c-18 -18 -13 -27 14 -27 14 0 25 -4 25 -10 0 -5 8 -10 18
-10 9 0 29 -11 44 -24 24 -22 26 -26 15 -57 -7 -19 -19 -45 -28 -59 -36 -56
-58 -100 -51 -100 4 0 23 26 42 58 19 31 46 68 61 82 25 24 69 99 69 119 0 21
-190 47 -209 28z"/>
<path d="M7716 2894 c-10 -27 -7 -37 8 -25 12 10 17 8 26 -9 15 -28 1 -49 -16
-25 -20 27 -27 13 -8 -14 21 -30 58 -25 61 9 3 27 -11 49 -44 67 -17 10 -22 9
-27 -3z"/>
<path d="M10959 2792 c-14 -15 -99 -98 -190 -184 l-164 -158 64 33 c114 58
245 184 309 296 26 47 19 51 -19 13z"/>
</g>
</svg>
